<svg width="200" height="33" viewBox="0 0 200 33" fill="none" xmlns="http://www.w3.org/2000/svg">
  <path fill-rule="evenodd" clip-rule="evenodd" d="M5.63477 5.61039H27.231V0H5.63477V5.61039Z" fill="#121212"/>
  <path fill-rule="evenodd" clip-rule="evenodd" d="M5.63477 32.7276H27.231V27.1172H5.63477V32.7276Z" fill="#121212"/>
  <path fill-rule="evenodd" clip-rule="evenodd" d="M0 27.1168H5.6338V5.61035H0V27.1168Z" fill="#121212"/>
  <path fill-rule="evenodd" clip-rule="evenodd" d="M27.2305 27.1168H32.8643V5.61035H27.2305V27.1168Z" fill="#121212"/>
  <path fill-rule="evenodd" clip-rule="evenodd" d="M76.5254 27.1168H81.9245V10.3468H92.7226V27.1168H98.1216V5.61035H76.5254V27.1168Z" fill="#121212"/>
  <path fill-rule="evenodd" clip-rule="evenodd" d="M151.643 10.3511H160.19V27.1168H165.631V10.3511H174.178V5.61035H151.643V10.3511Z" fill="#121212"/>
  <path fill-rule="evenodd" clip-rule="evenodd" d="M105.119 21.7402H101.877V27.1168H103.588C107.729 27.1168 110.103 24.7416 110.103 20.6006V10.3468H119.506V27.1168H124.882V5.61035H105.119V21.7402Z" fill="#121212"/>
  <path fill-rule="evenodd" clip-rule="evenodd" d="M182.685 20.7366H182.424V5.61035H176.996V27.1168H184.292L193.845 11.991H194.103V27.1168H199.531V5.61035H192.238L182.685 20.7366Z" fill="#121212"/>
  <path fill-rule="evenodd" clip-rule="evenodd" d="M137.202 18.1878L140.66 10.2954H141.03L144.488 18.1878H137.202ZM137.336 5.61035L127.699 27.1168H133.29L135.126 22.9242H146.564L148.401 27.1168H153.99L144.354 5.61035H137.336Z" fill="#121212"/>
  <path fill-rule="evenodd" clip-rule="evenodd" d="M59.86 22.666C54.8844 22.666 52.4514 20.0355 52.4514 16.1303C52.4514 12.2096 54.945 9.59468 59.86 9.59468C64.781 9.59468 67.2686 12.2096 67.2686 16.1303C67.2686 20.0656 64.8722 22.666 59.86 22.666ZM59.86 4.67578C51.9224 4.67578 46.9492 8.97141 46.9492 16.1303C46.9492 23.3494 51.983 27.5849 59.86 27.5849C68.0428 27.5849 72.7708 23.0456 72.7708 16.1303C72.7708 9.30586 68.0428 4.67578 59.86 4.67578Z" fill="#121212"/>
</svg>
